<svg width="1280" height="832" viewBox="0 0 1280 832" fill="none" xmlns="http://www.w3.org/2000/svg">
<path d="M1280 0H0V832H1280V0Z" stroke="#3A3A3A"/>
<path d="M1235.6 28.86H44.3999V803.14H1235.6V28.86Z" stroke="#3A3A3A"/>
<path d="M1191.2 57.72H88.7998V774.28H1191.2V57.72Z" stroke="#3A3A3A"/>
<path d="M1146.8 86.58H133.2V745.42H1146.8V86.58Z" stroke="#3A3A3A"/>
<path d="M1102.4 115.44H177.6V716.56H1102.4V115.44Z" stroke="#3A3A3A"/>
<path d="M1058 144.3H222V687.7H1058V144.3Z" stroke="#3A3A3A"/>
<path d="M1013.6 173.16H266.4V658.84H1013.6V173.16Z" stroke="#3A3A3A"/>
<path d="M969.2 202.02H310.8V629.98H969.2V202.02Z" stroke="#3A3A3A"/>
<path d="M924.8 230.88H355.2V601.12H924.8V230.88Z" stroke="#3A3A3A"/>
<path d="M355.2 601.12L0.000162103 832" stroke="#3A3A3A"/>
<path d="M393.174 601.12L105.539 832" stroke="#3A3A3A"/>
<path d="M431.147 601.12L200.477 832" stroke="#3A3A3A"/>
<path d="M469.12 601.12L288.137 832" stroke="#3A3A3A"/>
<path d="M507.094 601.12L370.745 832" stroke="#3A3A3A"/>
<path d="M545.067 601.12L449.891 832" stroke="#3A3A3A"/>
<path d="M583.04 601.12L526.782 832" stroke="#3A3A3A"/>
<path d="M621.014 601.12L602.398 832" stroke="#3A3A3A"/>
<path d="M658.987 601.12L677.602 832" stroke="#3A3A3A"/>
<path d="M696.96 601.12L753.218 832" stroke="#3A3A3A"/>
<path d="M734.934 601.12L830.109 832" stroke="#3A3A3A"/>
<path d="M772.907 601.12L909.255 832" stroke="#3A3A3A"/>
<path d="M810.88 601.12L991.863 832" stroke="#3A3A3A"/>
<path d="M848.854 601.12L1079.52 832" stroke="#3A3A3A"/>
<path d="M886.827 601.12L1174.46 832" stroke="#3A3A3A"/>
<path d="M924.8 601.12L1280 832" stroke="#3A3A3A"/>
<path d="M355.2 230.88L0.000162103 -1.29156e-05" stroke="#3A3A3A"/>
<path d="M355.2 255.563L0.000144583 68.5998" stroke="#3A3A3A"/>
<path d="M355.2 280.245L0.000257383 130.31" stroke="#3A3A3A"/>
<path d="M355.2 304.928L0.000212156 187.289" stroke="#3A3A3A"/>
<path d="M355.2 329.611L0.000154906 240.984" stroke="#3A3A3A"/>
<path d="M355.2 354.293L0.00014527 292.429" stroke="#3A3A3A"/>
<path d="M355.2 378.976L0.000189423 342.408" stroke="#3A3A3A"/>
<path d="M355.2 403.659L0.00018163 391.559" stroke="#3A3A3A"/>
<path d="M355.2 428.341L0.00018163 440.441" stroke="#3A3A3A"/>
<path d="M355.2 453.024L0.000189423 489.592" stroke="#3A3A3A"/>
<path d="M355.2 477.707L0.00014527 539.571" stroke="#3A3A3A"/>
<path d="M355.2 502.389L0.000154906 591.016" stroke="#3A3A3A"/>
<path d="M355.2 527.072L0.000212156 644.711" stroke="#3A3A3A"/>
<path d="M355.2 551.755L0.000257383 701.69" stroke="#3A3A3A"/>
<path d="M355.2 576.437L0.000144583 763.4" stroke="#3A3A3A"/>
<path d="M355.2 601.12L0.000162103 832" stroke="#3A3A3A"/>
<path d="M924.8 230.88L1280 -1.29156e-05" stroke="#3A3A3A"/>
<path d="M886.826 230.88L1174.46 9.76198e-06" stroke="#3A3A3A"/>
<path d="M848.853 230.88L1079.52 2.86705e-05" stroke="#3A3A3A"/>
<path d="M810.88 230.88L991.863 2.78165e-05" stroke="#3A3A3A"/>
<path d="M772.906 230.88L909.255 2.63902e-05" stroke="#3A3A3A"/>
<path d="M734.933 230.88L830.109 -2.77738e-06" stroke="#3A3A3A"/>
<path d="M696.96 230.88L753.218 2.0473e-05" stroke="#3A3A3A"/>
<path d="M658.986 230.88L677.602 5.41942e-05" stroke="#3A3A3A"/>
<path d="M621.013 230.88L602.398 5.41942e-05" stroke="#3A3A3A"/>
<path d="M583.04 230.88L526.782 2.0473e-05" stroke="#3A3A3A"/>
<path d="M545.066 230.88L449.891 -2.77738e-06" stroke="#3A3A3A"/>
<path d="M507.093 230.88L370.745 2.63902e-05" stroke="#3A3A3A"/>
<path d="M469.12 230.88L288.137 2.78165e-05" stroke="#3A3A3A"/>
<path d="M431.146 230.88L200.477 2.86705e-05" stroke="#3A3A3A"/>
<path d="M393.173 230.88L105.538 9.76198e-06" stroke="#3A3A3A"/>
<path d="M355.2 230.88L0.000162103 -1.29156e-05" stroke="#3A3A3A"/>
<path d="M924.8 601.12L1280 832" stroke="#3A3A3A"/>
<path d="M924.8 576.437L1280 763.4" stroke="#3A3A3A"/>
<path d="M924.8 551.754L1280 701.69" stroke="#3A3A3A"/>
<path d="M924.8 527.072L1280 644.711" stroke="#3A3A3A"/>
<path d="M924.8 502.389L1280 591.016" stroke="#3A3A3A"/>
<path d="M924.8 477.707L1280 539.571" stroke="#3A3A3A"/>
<path d="M924.8 453.024L1280 489.592" stroke="#3A3A3A"/>
<path d="M924.8 428.341L1280 440.441" stroke="#3A3A3A"/>
<path d="M924.8 403.658L1280 391.559" stroke="#3A3A3A"/>
<path d="M924.8 378.976L1280 342.408" stroke="#3A3A3A"/>
<path d="M924.8 354.293L1280 292.429" stroke="#3A3A3A"/>
<path d="M924.8 329.61L1280 240.984" stroke="#3A3A3A"/>
<path d="M924.8 304.928L1280 187.289" stroke="#3A3A3A"/>
<path d="M924.8 280.245L1280 130.31" stroke="#3A3A3A"/>
<path d="M924.8 255.562L1280 68.5996" stroke="#3A3A3A"/>
<path d="M924.8 230.88L1280 -0.000134986" stroke="#3A3A3A"/>
</svg>
