<svg width="429" height="548" viewBox="0 0 429 548" fill="none" xmlns="http://www.w3.org/2000/svg">
<path d="M242.139 314.034C254.67 320.009 264.315 328.245 271.076 338.742C277.836 349.239 281.216 361.351 281.216 375.078C281.216 393.811 274.373 408.83 260.688 420.135C247.003 431.278 225.239 436.849 195.395 436.849H108.09V305.071M240.983 2.29695C349.294 -13.8364 483.09 123.298 357.789 260.432C468.223 314.883 461.852 554.868 240.983 546.801M1 522.601V26.4973H203.804C241.067 26.4973 272.147 31.9073 297.044 42.7273C321.941 53.5473 340.655 68.566 353.186 87.7836C365.717 106.84 371.983 128.803 371.983 153.672C371.983 173.051 368.026 190.089 360.111 204.785C352.197 219.319 341.315 231.269 327.465 240.636C313.78 249.841 298.116 256.381 280.474 260.257V265.102C299.765 265.909 317.819 271.239 334.637 281.09C351.62 290.941 365.388 304.748 375.94 322.513C386.492 340.115 391.769 361.109 391.769 385.494C391.769 411.818 385.091 435.315 371.735 455.986C358.545 476.495 339.007 492.725 313.12 504.676C287.234 516.626 255.329 522.601 217.407 522.601H1ZM108.09 234.096H187.481C202.155 234.096 215.181 231.592 226.558 226.586C238.099 221.418 247.168 214.151 253.763 204.785C260.523 195.418 263.903 184.194 263.903 171.114C263.903 153.188 257.39 138.734 244.365 127.753C231.504 116.771 213.202 111.281 189.459 111.281H108.09V234.096Z" stroke="white" stroke-width="2"/>
</svg>
